<svg xmlns="http://www.w3.org/2000/svg" xmlns:xlink="http://www.w3.org/1999/xlink">
    <defs>
    <svg id="battery-half" xmlns="http://www.w3.org/2000/svg" width="1em" height="1em" viewBox="0 0 21 21"><g fill="none" fill-rule="evenodd"><path stroke="currentColor" stroke-linecap="round" stroke-linejoin="round" d="M4.5 6.5h10a2 2 0 0 1 2 2v3a2 2 0 0 1-2 2h-10a2 2 0 0 1-2-2v-3a2 2 0 0 1 2-2"/><path fill="currentColor" d="M5 8h4a1 1 0 0 1 1 1v2a1 1 0 0 1-1 1H5a1 1 0 0 1-1-1V9a1 1 0 0 1 1-1"/><path stroke="currentColor" stroke-linecap="round" stroke-linejoin="round" d="M18.5 8.5v3"/></g></svg>
     <svg id="menu-hamburger" xmlns="http://www.w3.org/2000/svg" width="1em" height="1em" viewBox="0 0 21 21"><path fill="none" stroke="currentColor" stroke-linecap="round" stroke-linejoin="round" d="M4.5 6.5h12m-12.002 4h11.997M4.5 14.5h11.995"/></svg>
     <svg id="cross" xmlns="http://www.w3.org/2000/svg" width="1em" height="1em" viewBox="0 0 21 21"><path fill="none" stroke="currentColor" stroke-linecap="round" stroke-linejoin="round" d="m15.5 15.5l-10-10zm0-10l-10 10"/></svg>
     </defs>
</svg>
    