<?xml version="1.0" encoding="UTF-8"?>
<svg version="1.1" xmlns="http://www.w3.org/2000/svg" width="192" height="192">
<path d="M0 0 C1.46373047 0.02707031 1.46373047 0.02707031 2.95703125 0.0546875 C3.69308594 0.07789062 4.42914063 0.10109375 5.1875 0.125 C4.1975 3.095 3.2075 6.065 2.1875 9.125 C-0.1225 9.455 -2.4325 9.785 -4.8125 10.125 C-5.1425 11.775 -5.4725 13.425 -5.8125 15.125 C-5.10589391 15.12738835 -4.39928782 15.12977671 -3.67126942 15.13223743 C13.52170069 15.1913724 30.71452027 15.26691277 47.90733624 15.36071491 C56.22165853 15.4056813 64.53593791 15.44509399 72.8503418 15.47143555 C80.09714555 15.49440883 87.34381358 15.52779929 94.59050971 15.57370156 C98.42763109 15.59764292 102.26461799 15.61636567 106.10181236 15.62261391 C109.71421954 15.62866071 113.32628259 15.64864549 116.93856239 15.67927551 C118.89491397 15.69224902 120.85134591 15.69048469 122.80773926 15.6882782 C123.97576584 15.70081635 125.14379242 15.71335449 126.34721375 15.72627258 C127.36026423 15.73088155 128.37331472 15.73549051 129.41706371 15.74023914 C133.88124584 16.36022905 137.3207457 18.68489484 140.1875 22.125 C141.36692085 25.66326255 141.30039189 28.46648726 141.28515625 32.19921875 C141.28303383 33.22496758 141.28303383 33.22496758 141.28086853 34.2714386 C141.27527876 36.45183722 141.26272822 38.63213251 141.25 40.8125 C141.24498367 42.29231622 141.240421 43.77213406 141.23632812 45.25195312 C141.22531271 48.87633557 141.20805512 52.5006577 141.1875 56.125 C140.18895996 56.13958252 139.19041992 56.15416504 138.16162109 56.16918945 C134.43763394 56.22740068 130.71423708 56.30463077 126.99072266 56.38745117 C125.3827476 56.42059363 123.77465919 56.44865854 122.16650391 56.47143555 C119.84749295 56.50517967 117.52951069 56.55750194 115.2109375 56.61328125 C114.14182632 56.62286613 114.14182632 56.62286613 113.05111694 56.63264465 C108.38783712 56.76833797 105.15884604 57.68445269 101.1875 60.125 C97.8097201 63.77665394 96.35494878 66.38353268 95.875 71.375 C96.2361757 75.70910838 97.20484258 78.90309199 100.1875 82.125 C104.91921815 85.00250525 109.0038099 85.58952265 114.4296875 85.63671875 C115.58224533 85.66364555 115.58224533 85.66364555 116.75808716 85.69111633 C119.19283695 85.74494958 121.6273938 85.77902692 124.0625 85.8125 C125.72138086 85.84569705 127.38023635 85.88018891 129.0390625 85.91601562 C133.08840182 86.00065991 137.13768661 86.06759857 141.1875 86.125 C141.26201364 90.4299777 141.31627223 94.73460734 141.35229492 99.04003906 C141.36732196 100.50267075 141.38774955 101.96525782 141.41381836 103.42773438 C141.45047267 105.5378728 141.46728676 107.64741226 141.48046875 109.7578125 C141.50403442 111.65877686 141.50403442 111.65877686 141.52807617 113.59814453 C141.08092232 118.2286711 139.86561807 121.54116483 136.44373894 124.7707901 C133.57332195 126.49363382 131.69501083 126.5073878 128.35598755 126.51940918 C126.56853119 126.53643387 126.56853119 126.53643387 124.7449646 126.55380249 C123.4409671 126.55087189 122.1369696 126.54794128 120.79345703 126.54492188 C119.4035982 126.55226288 118.01374547 126.5608492 116.62390137 126.57058716 C112.85107446 126.59281042 109.0784659 126.59573341 105.30558252 126.59383965 C102.15453142 126.59371997 99.00352662 126.60228319 95.8524884 126.61061716 C88.41708977 126.62985466 80.98180341 126.63273403 73.54638672 126.62597656 C65.87999918 126.61933725 58.21409296 126.64219452 50.54780304 126.67929029 C43.96251692 126.70999718 37.37738554 126.72134622 30.79202926 126.71745348 C26.86035219 126.71538674 22.92904953 126.72085287 18.99744034 126.74534607 C15.29869345 126.76762707 11.60072816 126.76572518 7.90197754 126.74541855 C5.90165482 126.74038858 3.90131746 126.76001794 1.90109253 126.78042603 C-7.90161688 126.68865394 -7.90161688 126.68865394 -11.603302 123.71154785 C-14.43055384 120.40137729 -14.93730142 118.9451569 -14.95967102 114.71087646 C-14.96682632 113.782827 -14.97398163 112.85477753 -14.98135376 111.89860535 C-14.98404266 110.87729019 -14.98673157 109.85597504 -14.98950195 108.80371094 C-14.99607315 107.73041031 -15.00264435 106.65710968 -15.00941467 105.55128479 C-15.02918017 101.98731421 -15.04081763 98.42338583 -15.05078125 94.859375 C-15.05485678 93.64408363 -15.0589323 92.42879227 -15.06313133 91.17667389 C-15.08400609 84.74424915 -15.09830165 78.31184584 -15.10766602 71.87939453 C-15.11873243 65.23010514 -15.15313139 58.58115844 -15.19283772 51.9319725 C-15.21896517 46.82417167 -15.22735445 41.71645096 -15.23094749 36.60858917 C-15.23582356 34.15736889 -15.24746636 31.70615243 -15.26598549 29.25499725 C-15.29029332 25.82435 -15.28942669 22.39457392 -15.2824707 18.96386719 C-15.29528076 17.95064896 -15.30809082 16.93743073 -15.32128906 15.89350891 C-15.27770566 9.99774026 -14.75812866 6.60710556 -10.8125 2.125 C-7.19680818 0.05381811 -4.11733387 -0.09921286 0 0 Z M-4.8125 26.125 C-4.4825 27.115 -4.1525 28.105 -3.8125 29.125 C-3.8125 28.465 -3.8125 27.805 -3.8125 27.125 C-3.1525 26.795 -2.4925 26.465 -1.8125 26.125 C-2.8025 26.125 -3.7925 26.125 -4.8125 26.125 Z M2.1875 26.125 C2.1875 26.455 2.1875 26.785 2.1875 27.125 C4.1675 27.125 6.1475 27.125 8.1875 27.125 C8.1875 26.795 8.1875 26.465 8.1875 26.125 C6.2075 26.125 4.2275 26.125 2.1875 26.125 Z M13.1875 26.125 C13.1875 26.455 13.1875 26.785 13.1875 27.125 C15.4975 27.125 17.8075 27.125 20.1875 27.125 C20.1875 26.795 20.1875 26.465 20.1875 26.125 C17.8775 26.125 15.5675 26.125 13.1875 26.125 Z M25.1875 26.125 C25.1875 26.455 25.1875 26.785 25.1875 27.125 C27.1675 27.125 29.1475 27.125 31.1875 27.125 C31.1875 26.795 31.1875 26.465 31.1875 26.125 C29.2075 26.125 27.2275 26.125 25.1875 26.125 Z M36.1875 26.125 C36.1875 26.455 36.1875 26.785 36.1875 27.125 C38.4975 27.125 40.8075 27.125 43.1875 27.125 C43.1875 26.795 43.1875 26.465 43.1875 26.125 C40.8775 26.125 38.5675 26.125 36.1875 26.125 Z M48.1875 26.125 C48.1875 26.455 48.1875 26.785 48.1875 27.125 C50.4975 27.125 52.8075 27.125 55.1875 27.125 C55.1875 26.795 55.1875 26.465 55.1875 26.125 C52.8775 26.125 50.5675 26.125 48.1875 26.125 Z M59.1875 26.125 C59.1875 26.455 59.1875 26.785 59.1875 27.125 C61.4975 27.125 63.8075 27.125 66.1875 27.125 C66.1875 26.795 66.1875 26.465 66.1875 26.125 C63.8775 26.125 61.5675 26.125 59.1875 26.125 Z M71.1875 26.125 C71.1875 26.455 71.1875 26.785 71.1875 27.125 C73.4975 27.125 75.8075 27.125 78.1875 27.125 C78.1875 26.795 78.1875 26.465 78.1875 26.125 C75.8775 26.125 73.5675 26.125 71.1875 26.125 Z M83.1875 26.125 C83.1875 26.455 83.1875 26.785 83.1875 27.125 C85.1675 27.125 87.1475 27.125 89.1875 27.125 C89.1875 26.795 89.1875 26.465 89.1875 26.125 C87.2075 26.125 85.2275 26.125 83.1875 26.125 Z M94.1875 26.125 C94.1875 26.455 94.1875 26.785 94.1875 27.125 C96.4975 27.125 98.8075 27.125 101.1875 27.125 C101.1875 26.795 101.1875 26.465 101.1875 26.125 C98.8775 26.125 96.5675 26.125 94.1875 26.125 Z M106.1875 26.125 C106.1875 26.455 106.1875 26.785 106.1875 27.125 C108.1675 27.125 110.1475 27.125 112.1875 27.125 C112.1875 26.795 112.1875 26.465 112.1875 26.125 C110.2075 26.125 108.2275 26.125 106.1875 26.125 Z M117.1875 26.125 C117.1875 26.455 117.1875 26.785 117.1875 27.125 C119.4975 27.125 121.8075 27.125 124.1875 27.125 C124.1875 26.795 124.1875 26.465 124.1875 26.125 C121.8775 26.125 119.5675 26.125 117.1875 26.125 Z M130.1875 27.125 C131.1875 29.125 131.1875 29.125 131.1875 29.125 Z M-4.8125 33.125 C-6.10883621 34.19145115 -6.10883621 34.19145115 -5.875 36.6875 C-5.854375 37.491875 -5.83375 38.29625 -5.8125 39.125 C-4.8225 39.62 -4.8225 39.62 -3.8125 40.125 C-3.8125 37.815 -3.8125 35.505 -3.8125 33.125 C-4.1425 33.125 -4.4725 33.125 -4.8125 33.125 Z M130.1875 33.125 C130.1875 35.435 130.1875 37.745 130.1875 40.125 C130.5175 40.125 130.8475 40.125 131.1875 40.125 C131.1875 37.815 131.1875 35.505 131.1875 33.125 C130.8575 33.125 130.5275 33.125 130.1875 33.125 Z M-4.8125 45.125 C-6.10883621 46.19145115 -6.10883621 46.19145115 -5.875 48.6875 C-5.854375 49.491875 -5.83375 50.29625 -5.8125 51.125 C-5.1525 51.125 -4.4925 51.125 -3.8125 51.125 C-3.8125 49.145 -3.8125 47.165 -3.8125 45.125 C-4.1425 45.125 -4.4725 45.125 -4.8125 45.125 Z M130.1875 45.125 C130.1875 47.105 130.1875 49.085 130.1875 51.125 C130.5175 51.125 130.8475 51.125 131.1875 51.125 C131.1875 49.145 131.1875 47.165 131.1875 45.125 C130.8575 45.125 130.5275 45.125 130.1875 45.125 Z M-4.8125 56.125 C-6.10883621 57.19145115 -6.10883621 57.19145115 -5.875 59.6875 C-5.854375 60.491875 -5.83375 61.29625 -5.8125 62.125 C-4.8225 62.62 -4.8225 62.62 -3.8125 63.125 C-3.8125 60.815 -3.8125 58.505 -3.8125 56.125 C-4.1425 56.125 -4.4725 56.125 -4.8125 56.125 Z M-4.8125 68.125 C-6.10883621 69.19145115 -6.10883621 69.19145115 -5.875 71.6875 C-5.854375 72.491875 -5.83375 73.29625 -5.8125 74.125 C-5.1525 74.125 -4.4925 74.125 -3.8125 74.125 C-3.8125 72.145 -3.8125 70.165 -3.8125 68.125 C-4.1425 68.125 -4.4725 68.125 -4.8125 68.125 Z M-5.8125 80.125 C-5.8125 81.775 -5.8125 83.425 -5.8125 85.125 C-4.8225 85.62 -4.8225 85.62 -3.8125 86.125 C-3.8125 84.145 -3.8125 82.165 -3.8125 80.125 C-4.4725 80.125 -5.1325 80.125 -5.8125 80.125 Z M-4.8125 91.125 C-6.10883621 92.19145115 -6.10883621 92.19145115 -5.875 94.6875 C-5.854375 95.491875 -5.83375 96.29625 -5.8125 97.125 C-4.8225 97.62 -4.8225 97.62 -3.8125 98.125 C-3.8125 95.815 -3.8125 93.505 -3.8125 91.125 C-4.1425 91.125 -4.4725 91.125 -4.8125 91.125 Z M130.1875 91.125 C130.1875 93.435 130.1875 95.745 130.1875 98.125 C130.5175 98.125 130.8475 98.125 131.1875 98.125 C131.1875 95.815 131.1875 93.505 131.1875 91.125 C130.8575 91.125 130.5275 91.125 130.1875 91.125 Z M-5.8125 103.125 C-5.8125 104.775 -5.8125 106.425 -5.8125 108.125 C-4.8225 108.62 -4.8225 108.62 -3.8125 109.125 C-3.8125 107.145 -3.8125 105.165 -3.8125 103.125 C-4.4725 103.125 -5.1325 103.125 -5.8125 103.125 Z M130.1875 103.125 C130.1875 105.105 130.1875 107.085 130.1875 109.125 C130.5175 109.125 130.8475 109.125 131.1875 109.125 C131.1875 107.145 131.1875 105.165 131.1875 103.125 C130.8575 103.125 130.5275 103.125 130.1875 103.125 Z M-4.8125 113.125 C-4.4825 114.445 -4.1525 115.765 -3.8125 117.125 C-3.1525 117.125 -2.4925 117.125 -1.8125 117.125 C-1.8125 116.465 -1.8125 115.805 -1.8125 115.125 C-2.4725 115.125 -3.1325 115.125 -3.8125 115.125 C-4.1425 114.465 -4.4725 113.805 -4.8125 113.125 Z M130.1875 113.125 C130.1875 113.785 130.1875 114.445 130.1875 115.125 C129.5275 115.125 128.8675 115.125 128.1875 115.125 C128.1875 115.785 128.1875 116.445 128.1875 117.125 C129.1775 116.795 130.1675 116.465 131.1875 116.125 C130.8575 115.135 130.5275 114.145 130.1875 113.125 Z M2.1875 115.125 C2.1875 115.785 2.1875 116.445 2.1875 117.125 C4.1675 117.125 6.1475 117.125 8.1875 117.125 C8.1875 116.465 8.1875 115.805 8.1875 115.125 C6.2075 115.125 4.2275 115.125 2.1875 115.125 Z M13.1875 115.125 C13.5175 115.785 13.8475 116.445 14.1875 117.125 C16.1675 117.125 18.1475 117.125 20.1875 117.125 C20.1875 116.465 20.1875 115.805 20.1875 115.125 C17.8775 115.125 15.5675 115.125 13.1875 115.125 Z M25.1875 115.125 C25.1875 115.785 25.1875 116.445 25.1875 117.125 C27.1675 117.125 29.1475 117.125 31.1875 117.125 C31.1875 116.465 31.1875 115.805 31.1875 115.125 C29.2075 115.125 27.2275 115.125 25.1875 115.125 Z M37.1875 115.125 C37.1875 115.785 37.1875 116.445 37.1875 117.125 C39.1675 117.125 41.1475 117.125 43.1875 117.125 C43.1875 116.465 43.1875 115.805 43.1875 115.125 C41.2075 115.125 39.2275 115.125 37.1875 115.125 Z M48.1875 115.125 C48.1875 115.785 48.1875 116.445 48.1875 117.125 C50.1675 117.125 52.1475 117.125 54.1875 117.125 C54.1875 116.465 54.1875 115.805 54.1875 115.125 C52.2075 115.125 50.2275 115.125 48.1875 115.125 Z M60.1875 115.125 C60.1875 115.785 60.1875 116.445 60.1875 117.125 C62.1675 117.125 64.1475 117.125 66.1875 117.125 C66.1875 116.465 66.1875 115.805 66.1875 115.125 C64.2075 115.125 62.2275 115.125 60.1875 115.125 Z M71.1875 115.125 C71.1875 115.785 71.1875 116.445 71.1875 117.125 C73.1675 117.125 75.1475 117.125 77.1875 117.125 C77.1875 116.465 77.1875 115.805 77.1875 115.125 C75.2075 115.125 73.2275 115.125 71.1875 115.125 Z M83.1875 115.125 C83.1875 115.785 83.1875 116.445 83.1875 117.125 C85.1675 117.125 87.1475 117.125 89.1875 117.125 C89.1875 116.465 89.1875 115.805 89.1875 115.125 C87.2075 115.125 85.2275 115.125 83.1875 115.125 Z M94.1875 115.125 C94.5175 115.785 94.8475 116.445 95.1875 117.125 C97.1675 117.125 99.1475 117.125 101.1875 117.125 C101.1875 116.465 101.1875 115.805 101.1875 115.125 C98.8775 115.125 96.5675 115.125 94.1875 115.125 Z M106.1875 115.125 C106.1875 115.785 106.1875 116.445 106.1875 117.125 C108.1675 117.125 110.1475 117.125 112.1875 117.125 C112.1875 116.465 112.1875 115.805 112.1875 115.125 C110.2075 115.125 108.2275 115.125 106.1875 115.125 Z M118.1875 115.125 C118.1875 115.785 118.1875 116.445 118.1875 117.125 C120.1675 117.125 122.1475 117.125 124.1875 117.125 C124.1875 116.465 124.1875 115.805 124.1875 115.125 C122.2075 115.125 120.2275 115.125 118.1875 115.125 Z " fill="#5E889E" transform="translate(30.8125,65.875)"/>
<path d="M0 0 C3.15758029 2.59536102 5.52151131 5.76718866 8 9 C9.16015625 10.485 9.16015625 10.485 10.34375 12 C12.01959501 14.15599534 13.67836604 16.32399203 15.328125 18.5 C18.65910175 22.88470402 22.08192778 27.19682598 25.5090332 31.5065918 C28.10752046 34.7922588 29.79869769 36.99348847 30.625 41.125 C29.79674186 46.26020046 27.77632443 47.65911511 23.7890625 50.80078125 C20.91218624 52.98866996 20.91218624 52.98866996 18.2109375 55.73046875 C11.54494501 62.0129414 6.42191975 63.82721952 -2.8125 63.625 C-5.89099917 63.49532114 -8.92940835 63.27552667 -12 63 C-12.01417969 62.31035156 -12.02835937 61.62070313 -12.04296875 60.91015625 C-12.39532726 53.96774123 -13.51134213 48.46540739 -18 43 C-23.59396926 38.44195097 -28.72384343 36.50670125 -36 37 C-40.95364606 39.00051091 -43.94997037 40.79493778 -46.25 45.625 C-47.57475613 51.58640257 -46.18369149 57.08154257 -45 63 C-58.53 63 -72.06 63 -86 63 C-80.37188209 57.37188209 -80.37188209 57.37188209 -77.50390625 55.0546875 C-76.8701709 54.54083496 -76.23643555 54.02698242 -75.58349609 53.49755859 C-74.58310303 52.69439209 -74.58310303 52.69439209 -73.5625 51.875 C-72.50796631 51.02349365 -72.50796631 51.02349365 -71.43212891 50.15478516 C-65.23478909 45.16205762 -58.98534571 40.23684399 -52.71337891 35.33837891 C-49.82677164 33.08355118 -46.94399791 30.82385208 -44.0625 28.5625 C-43.20096313 27.88658813 -43.20096313 27.88658813 -42.32202148 27.19702148 C-38.00519676 23.80432816 -33.71858348 20.37512316 -29.4375 16.9375 C-24.55354142 13.01964113 -19.64444498 9.13770329 -14.6875 5.3125 C-14.142146 4.89025146 -13.59679199 4.46800293 -13.03491211 4.03295898 C-8.46185304 0.52125423 -5.91721183 -0.954389 0 0 Z M-10.25 8 C-11.30960937 8.8353125 -11.30960937 8.8353125 -12.390625 9.6875 C-12.92171875 10.120625 -13.4528125 10.55375 -14 11 C-7.6431321 15.23791193 -3.38939929 15.06177776 4 14 C2.35281747 10.58902024 0.62004704 7.77416745 -2 5 C-6.37451315 5 -7.00472003 5.40377603 -10.25 8 Z M7 17 C8 19 8 19 8 19 Z M10 21 C10.33 21.99 10.66 22.98 11 24 C11 23.01 11 22.02 11 21 C10.67 21 10.34 21 10 21 Z M14 26 C15 28 15 28 15 28 Z M18 31 C15.00584022 37.46738512 14.81066406 42.00727785 16 49 C18.73806872 47.72620281 20.96597375 46.34756812 23.25 44.375 C24.1575 43.59125 25.065 42.8075 26 42 C24.23867546 37.99698968 21.73867517 34.3971023 19 31 C18.67 31 18.34 31 18 31 Z " fill="#5D889E" transform="translate(132,16)"/>
<path d="M0 0 C3.23050549 0.97854224 6.24662905 2.31437055 9.3125 3.71875 C10.16682617 4.09608276 11.02115234 4.47341553 11.90136719 4.86218262 C14.60726588 6.06107223 17.30351601 7.28010467 20 8.5 C21.84184661 9.32036178 23.68428937 10.1393865 25.52734375 10.95703125 C30.02527403 12.95595065 34.51466953 14.97297565 39 17 C39 17.99 39 18.98 39 20 C34.70700357 21.26264601 32.12168689 20.62950412 28 19 C28.0928125 19.56847656 28.185625 20.13695313 28.28125 20.72265625 C28.60410205 24.17602019 28.81409251 26.88247301 26.7109375 29.76953125 C24.55900327 31.65132906 22.31145197 33.31651475 20 35 C18.8032113 35.94275977 17.61080848 36.89110298 16.421875 37.84375 C6.58557092 45.70721454 6.58557092 45.70721454 4 47 C2.948125 46.690625 1.89625 46.38125 0.8125 46.0625 C-6.02589256 44.15671847 -10.71203612 44.67805682 -17 48 C-19.22780918 49.9346764 -20.68675504 51.37351009 -22 54 C-21.88140625 54.9590625 -21.7628125 55.918125 -21.640625 56.90625 C-20.64375126 66.07748843 -20.64375126 66.07748843 -23.14257812 69.61962891 C-24.67593615 71.18106106 -26.24826639 72.50139854 -28 73.8125 C-28.82806152 74.43318359 -28.82806152 74.43318359 -29.67285156 75.06640625 C-34.04009295 77.99293404 -37.78447264 78.65115442 -43 79 C-40.77902603 71.97673639 -38.08076946 65.27791302 -35.140625 58.52734375 C-34.67315857 57.44602676 -34.20569214 56.36470978 -33.72406006 55.25062561 C-32.23620807 51.8113885 -30.74316354 48.37443388 -29.25 44.9375 C-28.26268417 42.65704677 -27.27570209 40.37644901 -26.2890625 38.09570312 C-24.39115035 33.70984878 -22.48775545 29.32643916 -20.58007812 24.94482422 C-18.98378553 21.27629433 -17.40208033 17.60243917 -15.84179688 13.91845703 C-15.5228949 13.1715712 -15.20399292 12.42468536 -14.87542725 11.65516663 C-14.30437043 10.31652362 -13.73864335 8.97558687 -13.17974854 7.63182068 C-10.21222258 0.71432595 -7.68356392 -1.13845999 0 0 Z M-6 5 C-6.67154933 6.28913487 -7.33708859 7.58140204 -8 8.875 C-8.37125 9.59429688 -8.7425 10.31359375 -9.125 11.0546875 C-10.13673746 12.94848977 -10.13673746 12.94848977 -10 15 C-3.74257735 15.53895485 -3.74257735 15.53895485 1.875 13.125 C2.57625 12.42375 3.2775 11.7225 4 11 C4.99 10.34 5.98 9.68 7 9 C5.58774074 8.32404685 4.16997095 7.65959941 2.75 7 C1.96109375 6.62875 1.1721875 6.2575 0.359375 5.875 C-2.2056657 4.76818748 -2.2056657 4.76818748 -6 5 Z M-12 18 C-11 20 -11 20 -11 20 Z M-13 20 C-12 22 -12 22 -12 22 Z M-14 22 C-13 24 -13 24 -13 24 Z M-15 25 C-14 27 -14 27 -14 27 Z M-16 27 C-15 29 -15 29 -15 29 Z M-17 29 C-16 31 -16 31 -16 31 Z M-18 32 C-17 34 -17 34 -17 34 Z M-19 34 C-18 36 -18 36 -18 36 Z M-20 36 C-19 38 -19 38 -19 38 Z M-21 39 C-20 41 -20 41 -20 41 Z M-22 41 C-21 43 -21 43 -21 43 Z M-23 43 C-22 45 -22 45 -22 45 Z M-24 46 C-23 48 -23 48 -23 48 Z M-25 48 C-24 50 -24 50 -24 50 Z M-26 50 C-25 52 -25 52 -25 52 Z M-27 52 C-26 55 -26 55 -26 55 Z M-28 55 C-27 57 -27 57 -27 57 Z M-29 57 C-28 59 -28 59 -28 59 Z M-30 59 C-29 61 -29 61 -29 61 Z M-31 62 C-30 64 -30 64 -30 64 Z M-32 64 C-31 66 -31 66 -31 66 Z M-33 66 C-32 68 -32 68 -32 68 Z M-34 69 C-33 71 -33 71 -33 71 Z M-35 71 C-34 73 -34 73 -34 73 Z M-36 73 C-35 75 -35 75 -35 75 Z " fill="#5D879D" transform="translate(77,0)"/>
<path d="M0 0 C0.81605209 -0.00095673 1.63210419 -0.00191345 2.47288513 -0.00289917 C4.1986397 -0.00358006 5.92439683 -0.00173211 7.65014648 0.00244141 C10.30132758 0.00779782 12.95233978 0.00248983 15.60351562 -0.00390625 C17.27734413 -0.00324559 18.95117252 -0.00196467 20.625 0 C21.42289444 -0.00202423 22.22078888 -0.00404846 23.04286194 -0.00613403 C28.63113831 0.01785706 28.63113831 0.01785706 29.74609375 1.1328125 C29.84525945 2.75538794 29.87689152 4.38221081 29.87890625 6.0078125 C29.88083984 7.48507813 29.88083984 7.48507813 29.8828125 8.9921875 C29.87894531 10.02859375 29.87507813 11.065 29.87109375 12.1328125 C29.87689453 13.68742188 29.87689453 13.68742188 29.8828125 15.2734375 C29.88152344 16.25828125 29.88023437 17.243125 29.87890625 18.2578125 C29.87777832 19.16789062 29.87665039 20.07796875 29.87548828 21.015625 C29.74609375 23.1328125 29.74609375 23.1328125 28.74609375 24.1328125 C26.00461377 24.27119397 23.29017438 24.34598961 20.546875 24.37109375 C19.71907028 24.3791655 18.89126556 24.38723724 18.03837585 24.39555359 C16.28056951 24.40941412 14.52273603 24.42012742 12.76489258 24.42797852 C10.08687452 24.44513136 7.41011019 24.48899076 4.73242188 24.53320312 C3.02474867 24.5433351 1.31706495 24.55184962 -0.390625 24.55859375 C-1.58627327 24.58485588 -1.58627327 24.58485588 -2.80607605 24.61164856 C-8.08517279 24.59124941 -11.05979532 23.62272304 -15.25390625 20.1328125 C-17.72793231 16.36799023 -17.52247293 12.62219534 -16.9375 8.2890625 C-15.75102566 4.54658342 -13.48524067 3.24307171 -10.25390625 1.1328125 C-7.03737346 -0.4754539 -3.53239096 -0.00898435 0 0 Z M-9.00390625 8.3203125 C-10.71177855 10.79672733 -10.76951458 12.18647921 -10.25390625 15.1328125 C-8.67694993 17.2113733 -8.67694993 17.2113733 -6.25390625 18.1328125 C-3.86127218 17.46510067 -2.0329324 16.91183865 -0.25390625 15.1328125 C0.07949846 12.17476677 0.07949846 12.17476677 -0.25390625 9.1328125 C-3.45513448 6.99866034 -5.57679609 5.99477346 -9.00390625 8.3203125 Z " fill="#5E889E" transform="translate(146.25390625,124.8671875)"/>
<path d="M0 0 C0.66 1.65 1.32 3.3 2 5 C1.030625 5.45375 0.06125 5.9075 -0.9375 6.375 C-4.07079582 7.65786221 -4.07079582 7.65786221 -5 10 C-4.43410156 9.84015625 -3.86820312 9.6803125 -3.28515625 9.515625 C-0.94715227 8.98807538 1.16832549 8.79861268 3.5625 8.75 C4.70912109 8.71132812 4.70912109 8.71132812 5.87890625 8.671875 C8 9 8 9 9.7578125 10.29296875 C11.79206734 13.0884699 11.30265356 15.67081089 11 19 C9 21 9 21 7.0546875 21.1953125 C5.03645833 21.13020833 3.01822917 21.06510417 1 21 C1.474375 20.566875 1.94875 20.13375 2.4375 19.6875 C4.23686957 17.97690387 4.23686957 17.97690387 5 15 C3.96875 15.350625 2.9375 15.70125 1.875 16.0625 C-2.01433193 17.0034674 -4.18845319 17.06368748 -8 16 C-10 14 -10 14 -10.1953125 11.1796875 C-10.17210938 10.08914062 -10.14890625 8.99859375 -10.125 7.875 C-10.10695313 6.77929688 -10.08890625 5.68359375 -10.0703125 4.5546875 C-10.04710938 3.71164063 -10.02390625 2.86859375 -10 2 C-9.38382812 1.84660156 -8.76765625 1.69320312 -8.1328125 1.53515625 C-6.71120619 1.17845283 -5.29187523 0.81255521 -3.875 0.4375 C-2 0 -2 0 0 0 Z " fill="#5E879E" transform="translate(102,58)"/>
<path d="M0 0 C1.32 1.32 2.64 2.64 4 4 C2.10019993 7.51463012 0.43364683 9.89550678 -3 12 C-3.66 12 -4.32 12 -5 12 C-5 10.68 -5 9.36 -5 8 C-5.66 8 -6.32 8 -7 8 C-6.8125 6.1875 -6.8125 6.1875 -6 4 C-3.5 2.3125 -3.5 2.3125 -1 1 C-0.67 0.67 -0.34 0.34 0 0 Z " fill="#5D879D" transform="translate(66,50)"/>
<path d="M0 0 C0.66 0 1.32 0 2 0 C3.4606285 2.64738916 4 3.89448334 4 7 C0.37 7 -3.26 7 -7 7 C-4.66666667 4.66666667 -2.33333333 2.33333333 0 0 Z " fill="#5E889D" transform="translate(157,68)"/>
<path d="" fill="#5E879E" transform="translate(0,0)"/>
</svg>
